# xmcd CD database file
#
# Track frame offsets:
#	150
#	14061
#	29731
#	40232
#	58927
#	69017
#	90702
#	108242
#	124744
#	134729
#
# Disc length: 1973 seconds
#
# Revision: 0
# Processed by: cddbd v1.4PL0 Copyright (c) Steve Scherf et al.
# Submitted via: CDex 1.50
#
DISCID=9007b30a
DTITLE=Gary Potter - Solitude
DYEAR=2003
DGENRE=Jazz
TTITLE0=Honeysuckle Rose
TTITLE1=Something in the Way
TTITLE2=Remeber Me
TTITLE3=Moondance
TTITLE4=When Soembody Thinks You're Wonderful
TTITLE5=In My Solitude
TTITLE6=Who's Honey Are You
TTITLE7=All The Things You Are
TTITLE8=Can't Buy Me Love
TTITLE9=The Lord Is My Shepherd
EXTD=YEAR: 2003
EXTT0=
EXTT1=
EXTT2=
EXTT3=
EXTT4=
EXTT5=
EXTT6=
EXTT7=
EXTT8=
EXTT9=
PLAYORDER=
